
<svg version="1.0" xmlns="http://www.w3.org/2000/svg"
 width="252.000000pt" height="216.000000pt" viewBox="0 0 252.000000 216.000000"
 preserveAspectRatio="xMidYMid meet">

<g transform="translate(0.000000,216.000000) scale(0.100000,-0.100000)"
fill="#000000" stroke="none">
<path d="M332 1687 l-302 -302 618 -618 617 -617 433 433 432 432 -145 145
c-143 143 -161 170 -133 198 28 28 55 10 193 -128 77 -77 144 -140 150 -140 6
0 75 65 155 145 l145 145 -305 305 c-168 168 -308 304 -312 303 -4 -2 -143
-137 -308 -300 -166 -164 -305 -298 -309 -298 -3 0 -60 54 -126 120 l-120 120
-145 -145 c-143 -143 -170 -161 -198 -133 -28 28 -10 55 133 198 l145 145
-147 147 c-81 82 -152 148 -158 148 -6 0 -146 -136 -313 -303z"/>
</g>
</svg>
